<svg xmlns="http://www.w3.org/2000/svg" width="162" height="157" fill="none"><path fill="#046595" d="M41.166 22.09 41.196.5 21.976.473.385.44l21.558 21.622 19.223.028Z"/><path fill="#083655" d="m21.781 134.39.162-112.327L.384.44l-.03 21.59L.19 134.36l-.031 21.59L21.78 134.39Z"/><path fill="#046595" d="m21.75 155.98 76.706.11.031-21.59-76.706-.11L.16 155.949l21.59.031ZM120.667 134.532l-.031 21.591 19.222.027 21.591.031-21.56-21.621-19.222-.028Z"/><path fill="#083655" d="m140.051 22.233-.162 112.327 21.559 21.622.031-21.59.162-112.328.032-21.59-21.622 21.56Z"/><path fill="#046595" d="M140.083.643 63.376.533l-.031 21.59 76.706.11L161.673.674l-21.59-.031ZM55.547 48.145l.004-2.708c2.522-.471 5.101-.985 7.695-1.432 3.97-.684 7.955-1.268 11.91-2.025 1.108-.214 1.668.142 2.382.876 4.767 4.877 6.556 11.126 8.167 17.465.347 1.377.734 2.743 1.206 4.493 1.84-2.681 3.545-5.023 5.101-7.46 3.186-4.976 7.137-9.213 11.931-12.657 2.624-1.885 5.488-3.166 8.819-2.845 3.763.365 6.165 2.77 6.232 6.13.076 4.09-2.856 6.655-6.983 6.002-1.462-.232-2.957-.565-4.308-1.147-3.281-1.414-6.048-.556-8.219 1.948-2.953 3.419-5.848 6.919-8.399 10.635-3.141 4.578-2.96 4.683-1.635 10.059 2.107 8.536 4.117 17.095 6.305 25.612 1.435 5.586 3.802 6.299 7.945 2.235 2.578-2.532 4.701-5.534 7.183-8.517.532.274 1.394.72 2.343 1.206-3.917 6.945-8.624 13.07-15.398 17.24-5.134 3.161-9.896 1.495-11.81-4.284-1.904-5.75-3.248-11.696-4.783-17.565-.638-2.45-1.143-4.934-1.815-7.85-.745 1.193-1.278 2.107-1.864 2.979-4.506 6.685-8.892 13.452-13.59 19.998-2.589 3.611-6.01 6.458-10.399 7.808-2.81.864-5.523.587-7.989-1.133-2.854-1.989-3.577-5.695-1.727-8.732 1.561-2.562 5.062-3.357 8.017-1.714 1.13.63 2.121 1.504 3.18 2.268 2.207 1.589 3.108 1.667 4.971-.338 2.357-2.538 4.729-5.132 6.631-8.01 3.825-5.795 7.366-11.772 10.936-17.73.409-.685.506-1.783.306-2.579-1.554-6.186-3.132-12.367-4.877-18.496-1.546-5.428-4.68-9.31-10.786-9.703-2.157-.142-4.329-.03-6.677-.034l-.005.005Z"/></svg>
